<svg xmlns="http://www.w3.org/2000/svg" width="2000" height="2000"><path d="M1590.01 348.089h-346.886c-1.63 0-3.24.081-4.84.2V204.064c0-35.753-29.088-64.84-64.84-64.84H826.556c-35.753 0-64.84 29.087-64.84 64.84v144.225c-1.6-.119-3.211-.2-4.841-.2H409.99c-35.753 0-64.84 29.088-64.84 64.84v1383.007c0 35.753 29.087 64.84 64.84 64.84h346.886c12.818 0 24.769-3.755 34.84-10.198 10.072 6.444 22.022 10.198 34.84 10.198h346.887c12.819 0 24.77-3.755 34.84-10.198 10.072 6.444 22.023 10.198 34.841 10.198h346.886c35.753 0 64.84-29.088 64.84-64.84V412.93c0-35.753-29.087-64.841-64.84-64.841zM756.876 1800.776H409.99c-2.579 0-4.84-2.261-4.84-4.84V412.93c0-2.58 2.261-4.841 4.84-4.841h346.886c2.578 0 4.84 2.262 4.84 4.84v1383.007c0 2.579-2.262 4.84-4.84 4.84zm416.567 0H826.557c-2.579 0-4.84-2.261-4.84-4.84V204.063c0-2.578 2.261-4.84 4.84-4.84h346.886c2.579 0 4.84 2.262 4.84 4.84v1591.873c0 2.579-2.261 4.84-4.84 4.84zm421.408-4.84c0 2.579-2.262 4.84-4.84 4.84h-346.887c-2.579 0-4.84-2.261-4.84-4.84V412.93c0-2.58 2.261-4.841 4.84-4.841h346.886c2.579 0 4.84 2.262 4.84 4.84v1383.006z"/><path d="M672.276 602.346H494.59c-16.569 0-30 13.431-30 30s13.431 30 30 30h177.686c16.569 0 30-13.432 30-30s-13.431-30-30-30zm0 944.174H494.59c-16.569 0-30 13.431-30 30s13.431 30 30 30h177.686c16.569 0 30-13.432 30-30s-13.431-30-30-30zm0 104.609H494.59c-16.569 0-30 13.432-30 30s13.431 30 30 30h177.686c16.569 0 30-13.432 30-30s-13.431-30-30-30zm416.567-104.61H911.157c-16.569 0-30 13.432-30 30s13.431 30 30 30h177.686c16.569 0 30-13.431 30-30s-13.431-30-30-30zm0 104.61H911.157c-16.569 0-30 13.432-30 30s13.431 30 30 30h177.686c16.569 0 30-13.432 30-30s-13.431-30-30-30zm416.567-104.61h-177.686c-16.568 0-30 13.432-30 30s13.432 30 30 30h177.686c16.569 0 30-13.431 30-30s-13.432-30-30-30zm0 104.61h-177.686c-16.568 0-30 13.432-30 30s13.432 30 30 30h177.686c16.569 0 30-13.432 30-30s-13.432-30-30-30zm0-1048.783h-177.686c-16.568 0-30 13.431-30 30s13.432 30 30 30h177.686c16.569 0 30-13.432 30-30s-13.432-30-30-30zm0 104.61h-177.686c-16.568 0-30 13.43-30 30s13.432 30 30 30h177.686c16.569 0 30-13.433 30-30s-13.432-30-30-30zm-891.977 744.992V756.917c0-16.568-13.431-30-30-30s-30 13.432-30 30v695.031c0 16.569 13.431 30 30 30s30-13.431 30-30zm358.087-49.608h56.96c45.358 0 82.26-36.902 82.26-82.26V679.92c0-45.358-36.902-82.26-82.26-82.26h-56.96c-45.358 0-82.26 36.902-82.26 82.26v640.16c0 45.358 36.902 82.26 82.26 82.26zm-22.26-722.42c0-12.273 9.986-22.26 22.26-22.26h56.96c12.274 0 22.26 9.986 22.26 22.26v640.16c0 12.273-9.986 22.26-22.26 22.26h-56.96c-12.274 0-22.26-9.986-22.26-22.26V679.92z"/></svg>